<?xml version="1.0" standalone="no"?>
<!DOCTYPE svg PUBLIC "-//W3C//DTD SVG 20010904//EN"
 "http://www.w3.org/TR/2001/REC-SVG-20010904/DTD/svg10.dtd">
<svg version="1.0" xmlns="http://www.w3.org/2000/svg"
 width="394.000000pt" height="268.000000pt" viewBox="0 0 394.000000 268.000000"
 preserveAspectRatio="xMidYMid meet">

<g transform="translate(0.000000,268.000000) scale(0.100000,-0.100000)"
fill="skyblue" stroke="none">
<path d="M1668 2590 c-53 -16 -97 -51 -117 -94 -26 -53 -26 -67 0 -100 17 -21
29 -26 65 -26 137 0 238 170 129 216 -38 16 -39 16 -77 4z"/>
<path d="M2413 2575 c-143 -18 -381 -66 -526 -106 -61 -17 -114 -33 -116 -35
-2 -1 102 -3 230 -3 301 -1 546 -29 736 -86 l52 -15 -78 -113 c-43 -61 -90
-134 -106 -160 -15 -26 -29 -47 -30 -45 -2 2 3 59 11 128 7 69 13 140 14 158
l0 32 -122 0 -123 0 -170 -307 c-93 -168 -171 -310 -173 -315 -2 -4 48 -8 112
-8 l116 0 85 168 c47 92 83 158 81 147 -2 -11 -7 -63 -10 -115 -4 -52 -9 -119
-12 -147 l-6 -53 74 0 75 0 82 120 c45 66 97 143 116 172 39 59 41 59 20 -3
-14 -40 -75 -270 -75 -283 0 -3 52 -6 115 -6 l114 0 10 38 c5 20 31 139 57
265 26 125 51 227 55 227 18 0 124 -109 139 -143 l17 -38 60 65 c85 90 117
158 111 236 -5 76 -41 123 -126 166 -113 57 -180 67 -452 70 -166 2 -281 -2
-357 -11z" fill="skyblue"/>
<path d="M1456 2259 c-14 -38 -26 -74 -26 -80 0 -5 16 -9 35 -9 38 0 41 -6 23
-45 -9 -21 -18 -25 -50 -25 -37 0 -41 -3 -56 -40 -16 -37 -20 -40 -59 -40 -37
0 -42 -3 -52 -31 -16 -46 -15 -49 24 -49 39 0 40 -1 23 -47 -11 -30 -16 -33
-54 -33 -38 0 -43 -3 -53 -31 -16 -46 -15 -49 25 -49 39 0 38 4 17 -62 -5 -16
5 -18 114 -18 l119 0 114 303 c62 166 116 308 118 315 3 9 -24 12 -116 12
l-120 0 -26 -71z" fill="skyblue"/>
<path d="M1730 2238 c-19 -51 -36 -96 -38 -100 -2 -4 26 -8 62 -8 36 0 66 -2
66 -4 0 -2 -118 -313 -155 -409 -7 -16 1 -17 116 -15 l123 3 76 200 c41 110
79 206 83 213 5 7 32 12 71 12 l63 0 33 88 c18 48 35 93 38 100 3 9 -51 12
-250 12 l-254 0 -34 -92z" fill="skyblue"/>
<path d="M1260 2176 c0 -2 -7 -19 -15 -39 l-14 -35 41 -4 c38 -4 42 -2 54 29
20 48 18 53 -26 53 -22 0 -40 -2 -40 -4z" fill="skyblue"/>
<path d="M1106 1996 c-3 -13 -9 -31 -12 -40 -5 -13 2 -16 35 -16 38 0 43 3 57
35 7 19 14 37 14 40 0 3 -20 5 -44 5 -38 0 -45 -3 -50 -24z" fill="skyblue"/>
<path d="M758 1909 c-30 -31 -69 -84 -87 -119 -29 -54 -33 -69 -29 -120 5 -70
36 -116 105 -157 193 -113 657 -118 1151 -12 101 22 314 78 321 85 3 3 -58 2
-135 -2 -217 -10 -535 17 -734 63 -155 35 -403 131 -342 133 12 0 22 2 22 4 0
2 7 20 15 40 l15 36 -44 0 c-40 0 -45 -3 -55 -31 l-11 -31 -38 31 c-48 38 -58
49 -82 97 l-19 39 -53 -56z" fill="skyblue"/>
<path d="M1516 1143 c-12 -12 -6 -33 9 -33 8 0 15 6 15 14 0 17 -14 28 -24 19z"/>
<path d="M2974 1139 c-10 -17 13 -36 27 -22 12 12 4 33 -11 33 -5 0 -12 -5
-16 -11z" fill="skyblue"/>
<path d="M3350 1135 c-7 -9 -10 -19 -6 -22 8 -9 38 9 44 25 5 17 -23 15 -38
-3z" fill="skyblue"/>
<path d="M80 1015 c0 -104 2 -125 15 -125 13 0 15 21 15 125 0 104 -2 125 -15
125 -13 0 -15 -21 -15 -125z" fill="skyblue"/>
<path d="M1180 1095 c0 -16 -6 -25 -15 -25 -8 0 -15 -4 -15 -10 0 -5 7 -10 15
-10 12 0 15 -14 15 -64 0 -87 28 -117 76 -81 19 14 17 16 -21 19 -17 1 -20 9
-23 64 -3 61 -2 62 23 62 14 0 25 5 25 10 0 6 -11 10 -25 10 -20 0 -25 5 -25
25 0 16 -6 25 -15 25 -9 0 -15 -9 -15 -25z" fill="skyblue"/>
<path d="M1820 1095 c0 -16 -6 -25 -15 -25 -8 0 -15 -4 -15 -9 0 -5 7 -11 15
-15 11 -4 15 -22 15 -70 0 -55 3 -67 20 -76 25 -13 60 -4 60 16 0 10 -7 13
-25 8 -20 -5 -25 -2 -30 18 -4 14 -5 42 -3 64 3 34 6 39 31 42 37 4 35 22 -3
22 -25 0 -30 4 -30 25 0 14 -4 25 -10 25 -5 0 -10 -11 -10 -25z" fill="skyblue"/>
<path d="M380 985 c0 -78 3 -95 15 -95 12 0 15 13 15 60 0 65 21 100 59 100
37 0 51 -27 51 -96 0 -50 3 -64 15 -64 12 0 15 14 15 70 0 62 -3 74 -25 95
-28 29 -48 31 -87 11 -24 -13 -28 -13 -28 0 0 8 -7 14 -15 14 -12 0 -15 -17
-15 -95z" fill="skyblue"/>
<path d="M823 1070 c-17 -7 -23 -18 -23 -38 0 -32 12 -46 50 -57 35 -10 50
-24 43 -41 -6 -16 -68 -19 -78 -4 -4 6 -11 8 -16 5 -18 -12 -9 -24 27 -35 54
-18 94 1 94 45 0 30 -4 35 -45 51 -33 12 -45 22 -45 37 0 17 5 19 40 14 47 -6
63 9 25 23 -31 12 -42 12 -72 0z" fill="skyblue"/>
<path d="M1510 985 c0 -78 3 -95 15 -95 12 0 15 17 15 95 0 78 -3 95 -15 95
-12 0 -15 -17 -15 -95z" fill="skyblue"/>
<path d="M2140 1018 c0 -35 6 -74 13 -88 18 -36 57 -47 96 -27 26 13 31 13 31
1 0 -8 7 -14 15 -14 12 0 15 17 15 95 0 78 -3 95 -15 95 -12 0 -15 -13 -15
-60 0 -47 -4 -64 -20 -80 -48 -48 -90 -12 -90 78 0 48 -3 62 -15 62 -12 0 -15
-14 -15 -62z" fill="skyblue"/>
<path d="M2614 1070 c-88 -35 -61 -175 34 -175 40 0 76 20 66 36 -3 5 -13 5
-24 -1 -50 -27 -100 2 -100 57 0 54 39 72 109 52 29 -9 20 19 -10 30 -37 13
-46 13 -75 1z" fill="skyblue"/>
<path d="M2980 985 c0 -57 4 -95 10 -95 6 0 10 38 10 95 0 57 -4 95 -10 95 -6
0 -10 -38 -10 -95z"/>
<path d="M3304 1066 c-35 -16 -44 -32 -44 -82 0 -49 14 -71 54 -84 44 -14 81
-4 106 27 61 78 -24 180 -116 139z m88 -33 c39 -36 12 -113 -41 -113 -32 0
-44 8 -60 38 -32 61 49 122 101 75z"/>
<path d="M3690 985 c0 -78 3 -95 15 -95 12 0 15 13 15 60 0 65 21 100 59 100
37 0 51 -27 51 -96 0 -50 3 -64 15 -64 12 0 15 14 15 70 0 62 -3 74 -25 95
-28 29 -48 31 -87 11 -24 -13 -28 -13 -28 0 0 8 -7 14 -15 14 -12 0 -15 -17
-15 -95z"/>
<path d="M927 823 c-13 -12 -7 -71 9 -83 25 -21 68 -1 72 33 2 16 -2 35 -9 43
-12 14 -60 19 -72 7z"/>
<path d="M2367 823 c-13 -12 -7 -71 9 -83 25 -21 68 -1 72 33 2 16 -2 35 -9
43 -12 14 -60 19 -72 7z"/>
<path d="M3418 805 c-22 -50 38 -97 76 -59 19 18 21 55 4 72 -22 22 -67 14
-80 -13z"/>
<path d="M50 643 c0 -123 4 -155 19 -189 58 -129 280 -134 345 -9 18 34 21 62
25 193 l3 152 -55 0 -56 0 -3 -146 c-3 -146 -3 -146 -31 -170 -38 -32 -72 -31
-108 5 l-29 29 0 141 0 141 -55 0 -55 0 0 -147z"/>
<path d="M2550 715 c0 -38 -3 -45 -20 -45 -16 0 -20 -7 -20 -35 0 -28 4 -35
20 -35 19 0 20 -7 20 -90 0 -85 2 -91 29 -122 26 -30 34 -32 86 -32 68 1 80
11 71 59 -6 31 -11 36 -28 32 -41 -11 -48 1 -48 79 l0 74 40 0 c39 0 40 1 40
35 0 34 -1 35 -40 35 l-40 0 0 45 0 45 -55 0 -55 0 0 -45z"/>
<path d="M510 525 l0 -165 55 0 55 0 0 94 c0 52 3 102 6 111 11 27 53 38 80
20 23 -15 24 -21 24 -120 l0 -105 55 0 55 0 0 120 c0 129 -9 164 -52 194 -33
23 -109 21 -142 -5 l-26 -20 0 20 c0 19 -6 21 -55 21 l-55 0 0 -165z"/>
<path d="M910 525 l0 -165 55 0 55 0 0 165 0 165 -55 0 -55 0 0 -165z"/>
<path d="M1080 608 c17 -46 45 -120 62 -165 l31 -83 56 0 56 0 55 152 c30 83
56 158 58 165 3 9 -11 13 -50 13 l-54 0 -29 -105 c-17 -58 -32 -105 -36 -105
-3 0 -18 46 -35 103 l-29 102 -57 3 -58 3 30 -83z"/>
<path d="M1479 669 c-98 -57 -104 -221 -11 -284 48 -33 143 -35 202 -5 22 11
40 24 40 28 0 4 -11 20 -23 36 -23 28 -25 29 -48 13 -33 -24 -84 -22 -108 5
-11 11 -18 25 -15 30 3 4 52 8 110 8 l104 0 0 38 c0 50 -28 102 -69 129 -45
31 -131 31 -182 2z m115 -60 c26 -12 40 -35 30 -50 -3 -5 -30 -9 -60 -9 -62 0
-71 15 -28 49 31 25 27 24 58 10z"/>
<path d="M1790 525 l0 -165 49 0 49 0 4 96 c3 86 5 98 27 115 13 10 36 19 52
19 28 0 29 2 29 50 0 46 -2 50 -24 50 -13 0 -35 -9 -49 -20 -14 -11 -28 -20
-31 -20 -3 0 -6 9 -6 20 0 17 -7 20 -50 20 l-50 0 0 -165z"/>
<path d="M2078 674 c-34 -18 -48 -43 -48 -87 0 -47 24 -73 95 -100 69 -27 81
-53 24 -51 -20 1 -51 8 -69 18 -18 9 -34 15 -35 14 -2 -2 -10 -17 -19 -35 -16
-31 -16 -33 7 -48 13 -8 47 -19 76 -25 107 -20 181 21 181 101 0 52 -30 83
-104 104 -35 10 -56 22 -56 31 0 24 28 28 73 10 55 -21 54 -21 72 14 20 39 20
39 -20 56 -44 18 -142 17 -177 -2z"/>
<path d="M2350 525 l0 -165 55 0 55 0 0 165 0 165 -55 0 -55 0 0 -165z"/>
<path d="M2828 672 l-37 -17 15 -34 c12 -28 18 -32 37 -27 60 18 98 19 117 1
11 -10 20 -21 20 -25 0 -4 -33 -9 -72 -12 -79 -5 -111 -19 -127 -55 -48 -104
73 -191 177 -127 19 13 22 13 22 -1 0 -11 12 -15 50 -15 l50 0 0 131 0 131
-34 34 c-33 33 -37 34 -107 34 -49 0 -87 -6 -111 -18z m152 -187 c0 -26 -39
-56 -67 -53 -34 4 -51 31 -34 52 18 22 101 22 101 1z"/>
<path d="M3150 525 l0 -165 55 0 55 0 0 89 c0 103 19 141 71 141 28 0 29 1 29
50 0 44 -2 50 -21 50 -11 0 -34 -9 -50 -21 l-29 -20 0 20 c0 19 -6 21 -55 21
l-55 0 0 -165z"/>
<path d="M3410 525 l0 -165 50 0 50 0 0 165 0 165 -50 0 -50 0 0 -165z"/>
<path d="M3630 676 c-37 -14 -38 -16 -26 -59 7 -25 12 -28 35 -23 82 20 98 19
122 -5 l24 -24 -75 -6 c-82 -7 -113 -20 -129 -56 -19 -41 -13 -81 18 -115 25
-28 35 -32 78 -32 31 0 61 7 77 17 22 15 26 15 26 2 0 -11 12 -15 50 -15 l50
0 0 131 0 131 -34 34 c-33 33 -37 34 -107 33 -41 0 -90 -6 -109 -13z m150
-191 c0 -26 -39 -56 -67 -53 -34 4 -51 31 -34 52 18 22 101 22 101 1z"/>
<path d="M1060 191 c0 -28 -2 -29 -35 -24 -44 7 -65 -10 -65 -52 0 -51 56 -85
88 -53 9 9 12 9 12 0 0 -7 5 -12 10 -12 6 0 10 35 10 85 0 50 -4 85 -10 85 -5
0 -10 -13 -10 -29z m-2 -78 c4 -25 -20 -45 -50 -41 -17 2 -24 11 -26 33 -5 39
23 61 52 41 12 -7 22 -22 24 -33z"/>
<path d="M1145 211 c-3 -5 -1 -12 5 -16 5 -3 10 1 10 9 0 18 -6 21 -15 7z"/>
<path d="M1580 191 c0 -28 -1 -29 -39 -24 -34 5 -41 2 -55 -20 -20 -29 -13
-73 13 -87 10 -5 34 -8 54 -7 l37 2 0 83 c0 45 -2 82 -5 82 -3 0 -5 -13 -5
-29z m-9 -62 c14 -27 -6 -59 -36 -59 -31 0 -50 32 -35 59 18 34 52 34 71 0z"/>
<path d="M2504 135 c0 -50 1 -71 3 -48 2 23 2 64 0 90 -2 26 -3 8 -3 -42z"/>
<path d="M3260 135 c0 -50 4 -85 10 -85 6 0 10 35 10 85 0 50 -4 85 -10 85 -6
0 -10 -35 -10 -85z"/>
<path d="M3345 211 c-3 -5 -1 -12 5 -16 5 -3 10 1 10 9 0 18 -6 21 -15 7z"/>
<path d="M3520 191 c0 -28 -2 -29 -38 -24 -45 6 -65 -12 -65 -58 0 -41 16 -54
68 -54 l45 0 0 82 c0 46 -2 83 -5 83 -3 0 -5 -13 -5 -29z m-9 -62 c14 -27 -6
-59 -36 -59 -31 0 -50 32 -35 59 18 34 52 34 71 0z"/>
<path d="M3840 192 c0 -26 -3 -28 -33 -24 -41 5 -67 -18 -67 -57 0 -48 57 -80
88 -49 9 9 12 9 12 0 0 -7 5 -12 10 -12 6 0 10 35 10 85 0 50 -4 85 -10 85 -5
0 -10 -13 -10 -28z m-16 -45 c22 -16 18 -55 -6 -71 -40 -24 -80 44 -42 71 10
7 21 13 24 13 3 0 14 -6 24 -13z"/>
<path d="M81 128 c1 -46 4 -71 6 -55 4 22 9 27 33 27 19 0 33 -8 44 -25 9 -14
21 -25 27 -25 7 0 4 11 -6 26 -15 23 -15 27 -1 43 39 42 5 91 -62 91 l-42 0 1
-82z m90 46 c20 -24 -1 -48 -45 -52 -35 -3 -36 -2 -36 32 0 34 2 36 34 36 18
0 39 -7 47 -16z"/>
<path d="M2351 188 c-5 -13 -21 -49 -35 -80 -14 -32 -21 -58 -16 -58 5 0 14 9
20 20 15 29 96 29 105 0 5 -17 25 -29 25 -16 0 17 -71 156 -80 156 -6 0 -14
-10 -19 -22z m43 -55 c7 -20 4 -23 -23 -23 -36 0 -36 1 -15 42 17 33 23 30 38
-19z"/>
<path d="M2946 189 c-35 -28 -36 -80 -1 -114 27 -27 51 -31 89 -14 35 16 23
30 -13 16 -61 -23 -110 53 -63 96 21 19 67 23 77 7 4 -6 11 -7 17 -4 16 10
-21 34 -53 34 -14 0 -38 -9 -53 -21z"/>
<path d="M1230 186 c0 -8 -6 -17 -12 -20 -10 -5 -10 -7 0 -12 7 -3 12 -24 12
-50 0 -48 16 -63 47 -45 16 9 16 10 -4 11 -20 0 -23 5 -23 40 0 29 4 40 15 40
8 0 15 5 15 10 0 6 -7 10 -15 10 -8 0 -15 7 -15 15 0 8 -4 15 -10 15 -5 0 -10
-6 -10 -14z"/>
<path d="M2579 183 c-4 -49 4 -110 16 -122 8 -8 21 -11 32 -6 16 6 16 8 -4 16
-18 6 -23 16 -23 44 0 28 4 35 20 35 11 0 20 5 20 10 0 6 -9 10 -20 10 -11 0
-20 7 -20 15 0 21 -20 19 -21 -2z"/>
<path d="M262 158 c-17 -17 -15 -74 4 -92 16 -17 41 -20 68 -10 28 11 17 21
-21 20 -28 -1 -38 3 -41 17 -3 14 4 17 42 17 33 0 46 4 46 14 0 38 -70 62 -98
34z m78 -28 c0 -6 -16 -10 -35 -10 -38 0 -46 13 -18 29 19 10 53 -2 53 -19z"/>
<path d="M417 164 c-14 -15 -6 -24 12 -14 23 12 51 3 51 -16 0 -9 -12 -14 -35
-14 -24 0 -38 -5 -42 -16 -11 -29 11 -49 56 -50 l42 -1 -3 56 -3 56 -35 3
c-20 2 -39 0 -43 -4z m61 -71 c-4 -20 -35 -30 -50 -15 -15 15 0 32 28 32 19 0
25 -5 22 -17z"/>
<path d="M567 152 c-24 -26 -22 -68 5 -86 28 -20 49 -20 74 -1 18 14 17 15
-17 9 -43 -7 -64 13 -55 52 6 23 11 26 42 22 21 -2 33 0 31 6 -6 20 -62 18
-80 -2z"/>
<path d="M710 108 c0 -32 4 -58 10 -58 6 0 10 21 10 46 0 37 4 47 20 51 30 8
24 22 -10 21 -30 -1 -30 -1 -30 -60z"/>
<path d="M814 145 c-33 -50 11 -106 70 -91 39 10 31 23 -11 22 -28 -1 -38 3
-41 17 -3 14 4 17 42 17 50 0 60 15 30 44 -24 25 -71 20 -90 -9z m67 5 c31
-17 22 -30 -23 -30 -40 0 -41 0 -23 20 21 23 20 23 46 10z"/>
<path d="M1140 110 c0 -33 4 -60 10 -60 6 0 10 27 10 60 0 33 -4 60 -10 60 -6
0 -10 -27 -10 -60z"/>
<path d="M1340 160 c-11 -8 -8 -10 15 -8 17 1 36 -1 43 -6 23 -14 12 -26 -23
-26 -23 0 -37 -6 -44 -18 -16 -29 3 -46 54 -48 l47 -2 -7 52 c-4 28 -9 54 -12
59 -6 10 -55 8 -73 -3z m70 -58 c0 -14 -23 -32 -41 -32 -24 0 -35 20 -18 31
18 11 59 12 59 1z"/>
<path d="M1667 163 c-15 -14 -6 -23 12 -13 23 12 51 3 51 -16 0 -9 -12 -14
-35 -14 -71 0 -57 -64 14 -66 l41 -1 0 47 c0 25 -5 51 -12 58 -13 13 -60 16
-71 5z m61 -70 c-4 -22 -58 -31 -58 -10 0 20 10 27 37 27 18 0 24 -5 21 -17z"/>
<path d="M1906 154 c-47 -46 6 -122 68 -98 26 10 18 25 -9 18 -25 -6 -55 9
-55 27 0 5 20 9 45 9 37 0 45 3 45 18 0 41 -63 58 -94 26z m69 -14 c18 -20 17
-20 -23 -20 -44 0 -54 12 -24 29 24 14 26 14 47 -9z"/>
<path d="M2050 108 c0 -32 4 -58 10 -58 6 0 10 15 10 33 0 41 20 70 46 65 15
-2 20 -13 22 -51 2 -26 8 -47 13 -47 6 0 9 24 7 58 l-3 57 -52 1 -53 1 0 -59z"/>
<path d="M2697 163 c-15 -14 -6 -23 12 -13 23 12 51 3 51 -16 0 -9 -12 -14
-35 -14 -71 0 -57 -64 14 -66 l41 -1 0 47 c0 25 -5 51 -12 58 -13 13 -60 16
-71 5z m61 -70 c-4 -22 -58 -31 -58 -10 0 20 10 27 37 27 18 0 24 -5 21 -17z"/>
<path d="M3117 163 c-15 -14 -6 -23 12 -13 23 12 51 3 51 -16 0 -9 -12 -14
-35 -14 -71 0 -57 -64 14 -66 l41 -1 0 47 c0 25 -5 51 -12 58 -13 13 -60 16
-71 5z m61 -70 c-4 -22 -58 -31 -58 -10 0 20 10 27 37 27 18 0 24 -5 21 -17z"/>
<path d="M3340 110 c0 -33 4 -60 10 -60 6 0 10 27 10 60 0 33 -4 60 -10 60 -6
0 -10 -27 -10 -60z"/>
<path d="M3607 163 c-15 -14 -6 -23 12 -13 23 12 51 3 51 -16 0 -9 -12 -14
-35 -14 -71 0 -57 -64 14 -66 l41 -1 0 53 c0 38 -4 53 -16 58 -21 8 -59 8 -67
-1z m61 -70 c-4 -22 -58 -31 -58 -10 0 20 10 27 37 27 18 0 24 -5 21 -17z"/>
</g>
</svg>
