<?xml version="1.0" standalone="no"?>
<!DOCTYPE svg PUBLIC "-//W3C//DTD SVG 20010904//EN"
 "http://www.w3.org/TR/2001/REC-SVG-20010904/DTD/svg10.dtd">
<svg version="1.0" xmlns="http://www.w3.org/2000/svg"
 width="1024.000000pt" height="1024.000000pt" viewBox="0 0 1024.000000 1024.000000"
 preserveAspectRatio="xMidYMid meet">

<g transform="translate(0.000000,1024.000000) scale(0.100000,-0.100000)"
fill="#000000" stroke="none">
<path d="M7214 8871 c-136 -37 -169 -61 -369 -271 -89 -94 -169 -139 -285
-160 -49 -9 -412 -11 -1480 -9 l-1416 4 -75 -37 c-44 -22 -95 -57 -122 -85
-82 -83 -144 -229 -166 -393 -10 -74 -54 -590 -66 -785 -13 -197 -45 -523 -65
-659 -19 -128 -23 -143 -59 -197 -51 -77 -78 -133 -101 -216 -24 -80 -26 -208
-6 -257 27 -64 103 -97 140 -61 20 21 30 93 22 173 -9 87 17 172 78 264 76
113 75 109 110 358 19 133 31 254 51 500 8 107 17 211 20 230 3 19 12 143 20
275 28 432 41 510 101 600 39 59 109 112 158 119 88 14 1652 25 2446 18 387
-4 437 -1 536 33 102 34 132 58 302 239 41 43 88 84 105 93 18 8 48 23 67 33
111 59 303 64 409 10 96 -48 150 -122 178 -245 26 -115 24 -1354 -2 -1952 -8
-168 -8 -174 18 -250 25 -78 44 -144 68 -238 19 -73 16 -209 -6 -274 -30 -88
-72 -140 -165 -203 -155 -105 -225 -187 -256 -300 -32 -115 -34 -448 -8 -1523
10 -436 -13 -675 -91 -937 -52 -172 -155 -386 -245 -507 -129 -175 -445 -466
-580 -536 -18 -9 -28 -21 -24 -27 5 -7 2 -8 -6 -3 -7 4 -15 4 -19 -1 -8 -12
-35 -27 -159 -90 -126 -65 -123 -64 -117 -74 3 -5 19 -4 35 2 23 7 34 7 45 -2
16 -13 10 -34 -6 -25 -5 4 -19 3 -31 -1 -21 -6 -21 -7 -3 -20 10 -8 24 -14 29
-14 6 0 2 7 -8 15 -15 11 -16 15 -5 15 8 0 21 -6 28 -13 11 -10 13 -9 7 1 -4
7 -1 15 8 18 9 3 13 10 10 15 -3 5 1 9 8 9 7 0 26 7 42 15 16 9 31 13 34 10 3
-2 -3 -7 -12 -11 -9 -3 -16 -10 -16 -16 0 -5 13 -1 30 8 21 13 26 21 17 27 -8
6 -6 7 6 3 21 -7 49 3 41 15 -3 5 3 6 12 2 13 -5 15 -3 9 7 -5 8 -4 11 3 6 21
-13 219 112 204 129 -4 5 -1 5 5 1 7 -4 18 -2 25 4 7 5 42 33 78 61 36 27 71
58 78 67 7 9 16 17 20 17 4 0 6 3 4 8 -1 4 2 6 7 5 5 -2 17 5 28 14 297 274
409 416 507 647 37 85 116 395 136 531 7 52 10 352 9 930 -3 1206 1 1237 191
1380 53 40 145 142 181 200 23 36 59 137 70 195 11 57 0 167 -35 340 l-23 110
7 810 c3 446 3 947 -1 1115 -6 268 -9 312 -26 360 -54 148 -132 241 -255 303
-96 47 -133 56 -258 62 -84 4 -119 1 -176 -14z m-1014 -7325 c0 -2 -9 -6 -20
-9 -11 -3 -18 -1 -14 4 5 9 34 13 34 5z"/>
<path d="M7290 8365 c-14 -7 -38 -20 -55 -28 -16 -8 -88 -74 -159 -146 -105
-108 -142 -139 -200 -168 -86 -44 -171 -72 -251 -84 -57 -9 -1021 -11 -2040
-4 -302 2 -467 -1 -480 -7 -11 -6 -80 -70 -153 -142 -100 -98 -135 -139 -141
-166 -5 -19 -14 -150 -21 -290 -15 -322 -41 -588 -80 -805 -33 -182 -48 -239
-82 -323 -20 -49 -21 -57 -9 -115 7 -34 22 -78 34 -97 29 -48 103 -126 142
-150 75 -47 333 -66 458 -34 123 31 144 39 262 99 186 95 276 162 438 330 64
66 187 229 215 285 7 14 26 68 42 120 17 52 40 107 50 122 11 15 20 30 20 33
0 11 54 80 90 114 19 18 59 44 88 58 179 84 379 35 477 -117 48 -76 59 -154
59 -425 -1 -492 -23 -2642 -29 -2720 -9 -135 -25 -222 -61 -332 -53 -165 -113
-268 -213 -371 -96 -97 -147 -136 -240 -182 -96 -48 -136 -60 -256 -81 -134
-23 -421 -26 -535 -5 -119 21 -340 110 -340 137 0 5 -5 9 -11 9 -19 0 -167
131 -208 184 -21 28 -64 90 -94 138 -31 47 -73 99 -94 115 -21 15 -39 31 -41
36 -2 4 -10 7 -17 7 -7 0 -23 21 -35 47 -18 38 -21 59 -17 101 5 51 9 57 64
105 129 115 148 138 173 215 21 67 22 85 17 200 -10 209 -67 351 -192 478
-102 104 -212 154 -391 176 -121 15 -263 -7 -373 -59 -134 -63 -252 -206 -301
-364 -37 -123 -36 -323 4 -491 8 -35 24 -106 37 -158 12 -52 61 -215 110 -361
142 -432 265 -660 479 -891 60 -65 210 -198 224 -198 3 0 31 -17 63 -38 102
-68 189 -122 197 -122 4 0 41 -16 83 -36 202 -94 588 -184 915 -214 215 -19
730 20 925 69 97 25 228 77 348 138 132 68 150 78 234 141 42 31 88 65 102 74
58 37 191 174 239 247 63 94 186 340 200 401 5 25 17 72 26 105 52 204 56 250
47 590 -14 547 1 1441 27 1670 26 220 101 371 234 470 22 17 66 50 97 73 63
47 109 124 109 183 0 58 -18 138 -50 220 -48 126 -52 156 -51 419 3 443 21
1533 27 1650 7 115 7 115 -21 148 -30 36 -71 42 -115 17z"/>
<path d="M5567 6545 c-10 -20 -13 -34 -7 -30 5 3 10 -1 10 -9 0 -9 -5 -16 -10
-16 -6 0 -20 -21 -33 -47 -12 -27 -28 -54 -34 -61 -7 -7 -13 -19 -13 -26 0 -7
-13 -25 -30 -41 -16 -15 -28 -31 -27 -34 4 -12 -97 -132 -198 -234 -269 -274
-588 -481 -867 -561 -210 -60 -761 -61 -1030 -1 -37 8 -80 15 -95 15 l-28 -1
30 -25 c115 -97 196 -128 415 -160 161 -23 476 -16 605 14 175 41 339 112 520
224 44 27 89 55 100 61 95 56 237 178 410 352 236 236 252 255 246 294 -1 7 2
10 7 7 6 -3 13 1 16 10 3 8 2 12 -4 9 -14 -9 1 68 17 87 8 9 12 22 8 28 -4 6
-1 17 5 25 6 8 10 24 8 37 -3 22 -4 22 -20 -7 -10 -16 -17 -23 -18 -15 0 8 8
27 18 43 l19 27 11 -26 c7 -14 9 -31 6 -37 -5 -8 -4 -9 3 -2 18 17 4 75 -18
75 -13 0 -16 5 -12 16 5 13 7 13 14 2 10 -16 10 0 0 25 -6 15 -10 12 -24 -18z"/>
<path d="M5641 6447 c-13 -21 -12 -21 5 -5 10 10 16 20 13 22 -3 3 -11 -5 -18
-17z"/>
<path d="M3360 5765 c0 -18 34 -66 72 -101 44 -40 254 -152 265 -140 3 3 -25
20 -63 38 -95 44 -149 82 -216 150 -32 32 -58 56 -58 53z"/>
<path d="M3359 5176 c-2 -3 -59 -14 -127 -26 -295 -50 -540 -187 -728 -408
-137 -160 -223 -391 -246 -655 -14 -160 0 -292 61 -607 115 -586 286 -993 565
-1341 313 -391 722 -637 1313 -790 352 -90 669 -116 1053 -84 158 13 201 20
265 44 11 4 45 16 75 26 30 9 64 24 75 31 19 14 19 14 0 15 -11 0 7 11 40 25
57 23 58 24 20 19 -22 -2 -74 -7 -115 -10 -41 -4 -77 -9 -80 -13 -6 -9 -31 -9
-390 -12 -319 -2 -416 6 -692 56 -238 43 -560 146 -741 236 -247 124 -448 281
-649 508 -85 96 -136 170 -213 305 -157 278 -254 556 -381 1100 -38 159 -38
161 -38 380 0 199 2 229 23 310 29 112 58 174 132 284 60 90 179 213 262 270
65 44 238 125 312 145 192 51 428 35 620 -42 68 -27 217 -114 282 -163 211
-164 295 -309 332 -574 21 -146 11 -375 -20 -485 -15 -53 -52 -133 -71 -154
-10 -11 -25 -39 -34 -62 -13 -36 -14 -49 -4 -81 28 -85 67 -130 197 -224 112
-81 212 -117 373 -133 37 -4 50 -2 40 4 -9 6 -10 10 -3 10 6 0 15 -5 19 -12 5
-8 11 -6 20 7 9 12 21 16 38 13 14 -3 23 -2 21 3 -3 4 1 10 7 12 7 3 -3 4 -22
1 l-35 -4 32 15 c17 8 34 23 38 34 3 11 16 23 28 27 12 4 30 12 39 19 14 9 7
11 -40 10 -80 -3 -214 22 -304 57 -43 16 -80 29 -84 28 -4 -1 -10 2 -13 7 -3
5 -19 17 -36 27 -16 11 -52 38 -79 60 -98 81 -101 88 -63 124 31 29 70 108 71
143 1 15 4 25 7 23 10 -6 37 151 44 251 4 57 0 133 -9 205 -37 295 -146 522
-345 720 -93 92 -138 125 -263 190 -113 58 -212 93 -341 120 -82 18 -227 27
-238 16z m2278 -3782 c-3 -3 -12 -4 -19 -1 -8 3 -5 6 6 6 11 1 17 -2 13 -5z
m-84 -51 c-7 -2 -19 -2 -25 0 -7 3 -2 5 12 5 14 0 19 -2 13 -5z"/>
<path d="M6038 1503 c-10 -2 -18 -9 -18 -14 0 -13 12 -11 34 6 20 15 16 17
-16 8z"/>
<path d="M5956 1483 c-23 -4 -26 -7 -15 -15 10 -7 6 -8 -16 -4 -16 3 -24 3
-17 0 6 -3 10 -10 6 -15 -3 -5 7 -4 21 1 38 14 68 13 59 -2 -5 -9 -2 -8 9 1
13 10 15 17 6 27 -6 8 -14 13 -18 13 -3 -1 -19 -4 -35 -6z"/>
<path d="M6160 1480 c0 -5 5 -10 11 -10 5 0 7 5 4 10 -3 6 -8 10 -11 10 -2 0
-4 -4 -4 -10z"/>
<path d="M5950 1416 c0 -2 13 -6 29 -8 17 -2 28 -1 25 4 -5 8 -54 12 -54 4z"/>
<path d="M5608 1323 c7 -3 16 -2 19 1 4 3 -2 6 -13 5 -11 0 -14 -3 -6 -6z"/>
<path d="M5558 1303 c12 -2 32 -2 45 0 12 2 2 4 -23 4 -25 0 -35 -2 -22 -4z"/>
</g>
</svg>
