<?xml version="1.0" standalone="no"?>
<!DOCTYPE svg PUBLIC "-//W3C//DTD SVG 20010904//EN"
 "http://www.w3.org/TR/2001/REC-SVG-20010904/DTD/svg10.dtd">
<svg version="1.0" xmlns="http://www.w3.org/2000/svg"
 width="559.000000pt" height="446.000000pt" viewBox="0 0 559.000000 446.000000"
 preserveAspectRatio="xMidYMid meet">

<g transform="translate(0.000000,446.000000) scale(0.100000,-0.100000)"
fill="#000000" stroke="none">
<path d="M3475 4420 c-58 -9 -299 -52 -360 -65 -16 -4 -39 -10 -50 -15 -11 -5
-92 -27 -180 -50 -205 -54 -253 -76 -330 -153 -56 -56 -168 -212 -188 -262 -4
-11 -14 -26 -21 -35 -28 -31 -87 -204 -101 -293 -15 -100 -45 -401 -45 -456 0
-23 -12 -51 -35 -85 -42 -62 -55 -140 -34 -210 7 -25 17 -46 21 -46 4 0 8 -4
8 -10 0 -5 15 -31 34 -57 18 -27 50 -80 70 -119 35 -67 93 -133 170 -192 41
-32 105 -30 136 3 31 33 38 32 45 -12 9 -55 54 -231 72 -277 16 -45 43 -72 91
-92 18 -8 55 -28 83 -45 27 -17 52 -29 55 -27 7 8 -54 50 -116 82 -76 39 -87
50 -105 114 -9 32 -25 86 -37 122 -11 36 -23 104 -26 153 -3 48 -9 87 -13 87
-5 0 -9 -9 -9 -21 0 -26 -58 -86 -92 -94 -15 -4 -37 -1 -53 7 -50 26 -157 142
-184 198 -30 63 -69 129 -88 148 -91 93 -47 322 60 322 109 0 207 -37 207 -77
0 -15 16 -13 79 13 36 15 165 39 286 54 39 5 86 12 105 15 33 6 37 4 68 -38
24 -34 32 -56 32 -89 0 -44 19 -111 36 -128 5 -5 51 -22 102 -39 205 -68 374
-89 418 -53 12 10 41 49 65 87 76 121 133 185 164 185 24 0 50 -42 75 -125 14
-43 26 -76 44 -114 12 -26 58 -59 91 -65 11 -3 64 -15 118 -27 l97 -23 0 -66
c0 -86 -29 -195 -86 -323 -25 -56 -55 -129 -66 -162 -44 -127 -171 -314 -245
-361 -26 -16 -71 -34 -101 -40 -123 -25 -346 27 -532 123 -69 35 -115 53 -131
51 -21 -4 -18 -6 16 -16 22 -6 65 -26 95 -44 185 -111 469 -168 606 -121 60
20 141 98 206 198 52 80 88 148 88 167 1 7 9 31 20 53 11 22 19 44 20 48 0 5
12 34 26 65 15 31 33 75 40 96 8 22 18 44 23 50 14 18 31 106 39 195 l7 82 53
18 c62 21 93 48 128 110 35 62 74 182 74 225 0 30 5 39 28 48 15 7 57 32 94
56 102 66 127 138 96 274 -12 52 -37 83 -154 189 -40 37 -119 69 -189 79 -38
5 -124 17 -190 26 -163 22 -501 22 -604 0 -124 -27 -245 -57 -266 -65 -19 -8
-45 -16 -142 -41 -223 -57 -340 -107 -505 -216 -53 -35 -99 -64 -102 -64 -20
0 -132 -137 -141 -173 -4 -15 -11 -29 -15 -32 -4 -3 -54 1 -110 7 l-103 13 8
85 c8 87 8 98 20 260 16 223 75 376 237 613 46 68 127 151 167 171 37 20 95
39 191 65 42 11 121 32 175 46 55 15 116 31 135 37 107 30 365 67 471 68 127
0 206 -36 330 -152 74 -69 107 -99 209 -184 105 -88 121 -117 154 -293 14 -74
31 -140 37 -145 11 -11 7 25 -11 109 -4 22 -14 67 -20 100 -26 130 -45 161
-160 255 -64 53 -55 45 -160 140 -177 160 -218 181 -364 186 -56 1 -128 -1
-161 -6z m635 -792 c159 -17 151 -23 -37 -23 -139 0 -227 -6 -338 -22 -82 -12
-168 -24 -190 -27 -93 -12 -167 -26 -280 -55 -142 -37 -151 -40 -280 -101 -55
-26 -116 -53 -135 -60 -66 -26 -320 -201 -343 -237 -10 -16 -27 -17 -27 -2 0
28 90 115 181 174 54 36 103 65 109 65 5 0 10 4 10 8 0 11 142 82 162 82 8 0
18 4 24 8 17 15 202 69 384 112 19 4 89 22 155 40 66 18 149 36 185 40 87 11
315 10 420 -2z m223 -35 c-7 -2 -21 -2 -30 0 -10 3 -4 5 12 5 17 0 24 -2 18
-5z m80 -10 c-7 -2 -19 -2 -25 0 -7 3 -2 5 12 5 14 0 19 -2 13 -5z m-531 -15
c-9 -9 -15 -9 -24 0 -9 9 -7 12 12 12 19 0 21 -3 12 -12z m68 -44 c25 -10 47
-20 50 -23 3 -3 28 -17 55 -31 45 -22 136 -103 175 -155 52 -70 100 -215 70
-215 -7 0 -53 7 -103 17 -78 14 -104 15 -176 4 -113 -15 -281 -17 -308 -2 -48
25 -231 44 -468 48 -245 5 -256 4 -385 -37 -14 -4 -58 -13 -97 -19 -183 -28
-220 -35 -255 -53 -36 -17 -51 -38 -28 -38 6 0 10 -9 10 -20 0 -28 -17 -25
-24 5 -6 22 10 65 25 65 3 0 14 8 25 18 27 25 213 163 249 185 17 10 55 30 85
44 30 13 96 44 145 67 82 39 149 63 245 86 19 5 53 13 75 19 75 19 100 24 238
45 162 25 321 21 397 -10z m394 -430 c3 -8 2 -12 -4 -9 -6 3 -10 10 -10 16 0
14 7 11 14 -7z m-1437 -30 c-3 -3 -12 -4 -19 -1 -8 3 -5 6 6 6 11 1 17 -2 13
-5z m1426 -7 c4 3 7 1 7 -5 0 -17 -16 -15 -31 6 -12 15 -12 16 2 5 9 -7 19
-10 22 -6z m142 -59 c14 -6 25 -17 25 -25 0 -11 -6 -11 -30 2 -16 9 -30 20
-30 25 0 13 4 13 35 -2z"/>
<path d="M2425 2167 c0 -135 -1 -144 -27 -193 -27 -51 -109 -134 -202 -204
-53 -40 -185 -110 -208 -110 -18 -1 -48 -25 -48 -39 0 -8 -53 -11 -182 -11
-186 0 -339 -12 -393 -32 -142 -50 -434 -209 -495 -269 -8 -8 -31 -27 -51 -42
-83 -63 -153 -142 -276 -313 -23 -33 -53 -71 -65 -86 -13 -15 -48 -62 -78
-105 -30 -43 -57 -80 -60 -83 -11 -11 -69 -110 -75 -130 -4 -12 -24 -47 -45
-79 -53 -79 -97 -177 -105 -231 -5 -37 -3 -50 15 -73 23 -29 99 -69 176 -92
83 -24 391 -75 446 -74 29 1 42 3 28 6 -186 29 -243 39 -350 60 -69 13 -129
28 -134 34 -6 5 -17 9 -25 9 -9 0 -39 12 -68 26 -110 56 -96 130 79 397 32 48
58 93 58 100 0 11 37 72 62 102 5 6 43 57 85 115 43 58 80 107 83 110 4 3 23
30 43 60 55 84 101 134 202 219 118 99 204 156 330 219 120 60 163 79 255 111
22 8 128 15 296 18 l260 6 13 -42 c23 -77 94 -194 143 -236 19 -17 59 -50 87
-74 29 -25 74 -65 100 -90 65 -63 132 -110 206 -145 32 -15 246 -134 300 -167
17 -10 100 -54 186 -97 159 -82 234 -106 310 -100 36 2 45 8 60 34 26 47 46
207 31 247 -11 29 -9 39 22 102 45 91 80 171 96 216 13 36 14 37 79 43 36 4
157 7 269 7 229 0 245 -3 332 -82 58 -51 101 -75 231 -127 69 -28 120 -56 146
-80 93 -86 121 -109 173 -145 30 -20 61 -37 68 -37 6 0 12 -4 12 -9 0 -5 8
-12 18 -15 30 -10 97 -78 151 -154 28 -39 51 -77 51 -82 0 -6 5 -10 10 -10 6
0 10 -6 10 -13 0 -7 5 -18 12 -25 6 -6 31 -47 54 -89 23 -43 48 -81 56 -84
136 -66 160 -85 151 -119 -13 -49 -113 -104 -323 -177 -113 -40 -120 -44 -71
-39 30 3 59 10 65 16 5 5 20 10 32 10 13 0 25 4 28 9 3 5 18 12 33 15 37 9
167 69 171 78 2 5 8 8 13 8 18 0 67 52 74 77 8 33 -27 71 -93 102 -26 12 -54
26 -62 30 -8 4 -22 21 -30 37 -45 86 -177 287 -228 345 -23 25 -66 62 -96 82
-31 21 -81 54 -112 74 -31 20 -90 67 -131 104 -62 57 -89 74 -171 105 -115 45
-141 60 -249 141 -48 36 -97 65 -118 69 -19 3 -145 5 -279 3 l-243 -4 12 36
c7 20 18 45 24 55 15 26 61 197 55 203 -9 9 -23 -22 -34 -74 -10 -46 -74 -217
-91 -240 -4 -5 -19 -41 -34 -80 -16 -38 -43 -102 -61 -141 -35 -74 -160 -271
-201 -315 -14 -16 -20 -29 -15 -33 10 -6 82 72 82 88 0 13 74 115 88 120 17 7
16 -49 -3 -149 -23 -122 -18 -115 -84 -115 -38 0 -82 9 -127 26 -73 27 -259
122 -384 196 -41 25 -109 62 -150 83 -147 75 -238 134 -310 201 -30 28 -92 83
-137 123 -111 97 -172 191 -192 296 -8 44 -8 44 28 60 182 81 342 207 402 317
l34 63 -1 133 c-1 74 -6 138 -11 143 -5 5 -9 -50 -8 -134z" />
</g>
</svg>
